<svg width="252" height="102" viewBox="0 0 252 102" fill="none" xmlns="http://www.w3.org/2000/svg">
<rect width="252" height="102" fill="#1E1E1E"/>
<g id="Rectangle 2" filter="url(#filter0_d_0_1)">
<rect x="4" y="35" width="188" height="23" rx="11.5" fill="white"/>
<rect x="5" y="36" width="186" height="21" rx="10.5" stroke="black" stroke-width="2"/>
</g>
<g id="Polygon 1" filter="url(#filter1_d_0_1)">
<path d="M244.151 40.908C248.938 43.5702 248.951 50.4518 244.173 53.1313L174.101 92.4266C169.439 95.0406 163.686 91.6779 163.677 86.3337L163.536 7.99572C163.526 2.65156 169.267 -0.731848 173.938 1.86531L244.151 40.908Z" fill="white"/>
<path d="M243.683 52.259L173.612 91.5544C169.616 93.795 164.685 90.9126 164.677 86.3319L164.536 7.99391C164.527 3.41321 169.448 0.513145 173.452 2.73928L243.665 41.7819C247.768 44.0638 247.779 49.9624 243.683 52.259Z" stroke="black" stroke-width="2"/>
</g>
<defs>
<filter id="filter0_d_0_1" x="0" y="35" width="196" height="31" filterUnits="userSpaceOnUse" color-interpolation-filters="sRGB">
<feFlood flood-opacity="0" result="BackgroundImageFix"/>
<feColorMatrix in="SourceAlpha" type="matrix" values="0 0 0 0 0 0 0 0 0 0 0 0 0 0 0 0 0 0 127 0" result="hardAlpha"/>
<feOffset dy="4"/>
<feGaussianBlur stdDeviation="2"/>
<feComposite in2="hardAlpha" operator="out"/>
<feColorMatrix type="matrix" values="0 0 0 0 0 0 0 0 0 0 0 0 0 0 0 0 0 0 0.25 0"/>
<feBlend mode="normal" in2="BackgroundImageFix" result="effect1_dropShadow_0_1"/>
<feBlend mode="normal" in="SourceGraphic" in2="effect1_dropShadow_0_1" result="shape"/>
</filter>
<filter id="filter1_d_0_1" x="159.536" y="0.972961" width="92.213" height="100.358" filterUnits="userSpaceOnUse" color-interpolation-filters="sRGB">
<feFlood flood-opacity="0" result="BackgroundImageFix"/>
<feColorMatrix in="SourceAlpha" type="matrix" values="0 0 0 0 0 0 0 0 0 0 0 0 0 0 0 0 0 0 127 0" result="hardAlpha"/>
<feOffset dy="4"/>
<feGaussianBlur stdDeviation="2"/>
<feComposite in2="hardAlpha" operator="out"/>
<feColorMatrix type="matrix" values="0 0 0 0 0 0 0 0 0 0 0 0 0 0 0 0 0 0 0.25 0"/>
<feBlend mode="normal" in2="BackgroundImageFix" result="effect1_dropShadow_0_1"/>
<feBlend mode="normal" in="SourceGraphic" in2="effect1_dropShadow_0_1" result="shape"/>
</filter>
</defs>
</svg>
