<?xml version="1.0" encoding="UTF-8"?>
<svg width="100px" height="100px" viewBox="0 0 100 100" version="1.1" xmlns="http://www.w3.org/2000/svg" xmlns:xlink="http://www.w3.org/1999/xlink">
    <!-- Generator: Sketch 43.2 (39069) - http://www.bohemiancoding.com/sketch -->
    <title>flecha derecha</title>
    <desc>Created with Sketch.</desc>
    <defs></defs>
    <g id="Page-1" stroke="none" stroke-width="1" fill="none" fill-rule="evenodd">
        <g id="flecha-derecha">
            <g id="Group-2">
                <g id="Group-15">
                    <circle id="Oval" fill="#FFFFFF" cx="50" cy="50" r="48"></circle>
                    <g id="show-scroll" transform="translate(52.000000, 50.500000) rotate(-270.000000) translate(-52.000000, -50.500000) translate(23.000000, 34.000000)" fill="#666666">
                        <g id="Group-11">
                            <path d="M29,0.0598523819 C29.6936243,-0.107749256 30.4588289,0.0763771841 31.0015563,0.615594297 L57.3781386,26.82158 C58.2063713,27.6444559 58.2067612,28.9726654 57.3824539,29.7916413 L55.3016245,31.8590124 C54.4817979,32.6735366 53.1389191,32.6760688 52.3122286,31.8547251 L29,8.6932738 L5.68777142,31.8547251 C4.86108091,32.6760688 3.51820209,32.6735366 2.69837548,31.8590124 L0.617546117,29.7916413 C-0.206761159,28.9726654 -0.206371315,27.6444559 0.621861351,26.82158 L26.9984437,0.615594297 C27.5411711,0.0763771841 28.3063757,-0.107749256 29,0.0598523819 L29,0.0598523819 Z" id="Combined-Shape"></path>
                        </g>
                    </g>
                    <path d="M49.9990215,8 C26.8537714,8 8,26.8541404 8,50 C8,54.5374464 8.79288038,58.9864734 10.3337137,63.6111971 C16.1993516,80.4752361 32.0455919,92 49.9990215,92 C73.1442716,92 91.998043,73.1458596 91.9983562,49.9292077 C92.1750037,29.9676484 77.916319,12.7291997 58.4726014,8.91301557 C55.489932,8.31647002 52.6417576,8 49.9990215,8 Z M49.9990215,0 C53.417758,0 56.8364945,0.427350427 60.04156,1.06837607 C82.9043604,5.55555556 100.211714,25.8547009 99.998043,50 C99.998043,77.5641026 77.5625846,100 49.9990215,100 C28.2045762,100 9.61519644,85.8974359 2.77772342,66.2393162 C1.06835516,61.1111111 0,55.7692308 0,50 C0,22.4358974 22.4354584,0 49.9990215,0 Z" id="Shape-Copy" fill="#818285" fill-rule="nonzero"></path>
                </g>
            </g>
        </g>
    </g>
</svg>