<svg width="232" height="292" viewBox="0 0 232 292" fill="none" xmlns="http://www.w3.org/2000/svg">
<g id="undraw_throw_away_re_x60k 1" clip-path="url(#clip0_22_2)">
<path id="Rectangle 20" d="M34.3736 82.3603C34.1695 76.6999 38.7029 72 44.3671 72H188.68C194.326 72 198.853 76.6717 198.675 82.3153L192.743 270.315C192.573 275.713 188.148 280 182.748 280H51.1459C45.7633 280 41.3464 275.739 41.1524 270.36L34.3736 82.3603Z" fill="#9C9C9C"/>
<g id="Group 1">
<path id="Rectangle 17" d="M118.085 98.4553H108.68V238.799H118.085V98.4553Z" fill="#565555"/>
<path id="Rectangle 18" d="M148.242 98.4553H138.837V238.799H148.242V98.4553Z" fill="#565555"/>
<path id="Rectangle 19" d="M87.9284 98.4553H78.5231V238.799H87.9284V98.4553Z" fill="#565555"/>
</g>
<path id="Path 10" d="M118.326 10.8598L118.422 10.8424L118.426 10.838C121.82 10.2499 124.874 11.3733 127.232 14.075C129.612 16.802 131.185 21.0233 131.764 26.2377C132.344 31.4522 131.905 37.444 130.5 43.5034C129.115 49.4748 126.848 55.265 123.96 60.2058L119.453 61.0255C122.096 57.5887 124.374 53.2215 126.014 48.4178C127.865 42.9951 128.808 37.2995 128.7 32.1659C128.592 27.032 127.44 22.7337 125.412 19.9011C123.385 17.0687 120.59 15.8521 117.439 16.4242C114.289 16.9962 110.946 19.3266 107.901 23.0725C104.855 26.8183 102.264 31.7857 100.508 37.25C98.7512 42.7147 97.9217 48.3903 98.1437 53.4446C98.3407 57.9277 99.3555 61.71 101.059 64.3658L96.518 65.1916C95.0527 61.0535 94.5113 55.7882 94.9584 49.9985C95.4127 44.1149 96.8689 37.9347 99.1564 32.1912C101.444 26.4475 104.466 21.3833 107.865 17.6012C111.264 13.8191 114.895 11.4799 118.326 10.8598Z" fill="#4E4E4E" stroke="black"/>
<path id="Rectangle 21" d="M187.216 65.2748L42.0498 64.2976L29.0983 45.9388L204.493 47.6452L187.216 65.2748Z" fill="#565555" stroke="black"/>
</g>
<defs>
<clipPath id="clip0_22_2">
<rect width="232" height="292" fill="white"/>
</clipPath>
</defs>
</svg>
