<svg width="1003" height="534" viewBox="0 0 1003 534" fill="none" xmlns="http://www.w3.org/2000/svg">
<g id="undraw_throw_away_re_x60k 1">
<path id="Rectangle 20" d="M168.202 218.732C168.003 213.075 172.535 208.381 178.196 208.381H349.34C354.984 208.381 359.509 213.047 359.335 218.688L352.322 446.464C352.156 451.865 347.73 456.156 342.327 456.156H186.211C180.825 456.156 176.407 451.891 176.217 446.508L168.202 218.732Z" fill="#9C9C9C"/>
<g id="Group 1">
<path id="Rectangle 17" d="M270.392 240.519H256.116V408.568H270.392V240.519Z" fill="#565555"/>
<path id="Rectangle 18" d="M316.166 240.519H301.89V408.568H316.166V240.519Z" fill="#565555"/>
<path id="Rectangle 19" d="M224.618 240.519H210.342V408.568H224.618V240.519Z" fill="#565555"/>
</g>
<path id="Path 10" d="M270.315 117.485L270.458 117.5L270.467 117.496C278.262 118.339 285.652 121.283 291.769 125.984C297.924 130.713 302.534 137.021 305.053 144.161C307.571 151.3 307.894 158.973 305.98 166.268C304.085 173.494 300.074 180.05 294.416 185.172L283.222 183.996C288.854 180.776 293.372 176.031 296.191 170.344C299.241 164.192 300.143 157.26 298.763 150.563C297.384 143.866 293.795 137.758 288.522 133.134C283.25 128.51 276.574 125.613 269.472 124.866C262.37 124.119 255.214 125.56 249.052 128.977C242.89 132.394 238.042 137.608 235.22 143.859C232.398 150.11 231.75 157.068 233.374 163.716C234.876 169.866 238.248 175.448 243.049 179.77L231.82 178.591C227.431 172.419 224.963 165.191 224.704 157.745C224.443 150.222 226.449 142.793 230.487 136.338C234.524 129.884 240.422 124.676 247.483 121.333C254.543 117.991 262.467 116.656 270.315 117.485Z" fill="#4E4E4E" stroke="black"/>
<path id="Rectangle 21" d="M361.575 203.499L168.144 203.499L150.57 169.254L385.28 170.22L361.575 203.499Z" fill="#565555" stroke="black"/>
</g>
</svg>
